<?xml version="1.0" encoding="UTF-8"?>
<svg id="Calque_2" data-name="Calque 2" xmlns="http://www.w3.org/2000/svg" viewBox="0 0 1083.01 1146.92">
  <defs>
    <style>
      .cls-1 {
        fill: #483c46;
      }

      .cls-1, .cls-2, .cls-3, .cls-4, .cls-5, .cls-6 {
        stroke-width: 0px;
      }

      .cls-2 {
        fill: #f2c14e;
      }

      .cls-3, .cls-7 {
        fill: none;
      }

      .cls-4 {
        fill: #4d9078;
      }

      .cls-7 {
        stroke: #e8eef0;
        stroke-miterlimit: 10;
        stroke-width: 40px;
      }

      .cls-5 {
        fill: #5fad56;
      }

      .cls-6 {
        fill: #f78154;
      }
    </style>
  </defs>
  <g id="Calque_1-2" data-name="Calque 1">
    <g>
      <path class="cls-6" d="M961.41,776.79c-41.65,80.7-107.33,146.99-187.57,189.39l-77.77-147.45c50.11-26.48,91.13-67.88,117.14-118.28l148.2,76.34Z"/>
      <path class="cls-2" d="M773.84,966.18c-61.84,32.68-132.32,51.19-207.13,51.19-150.23,0-283.04-74.63-363.35-188.84l136.43-95.77c50.16,71.33,133.09,117.94,226.92,117.94,46.72,0,90.74-11.56,129.36-31.97l77.77,147.45Z"/>
      <path class="cls-5" d="M339.79,732.76l-136.43,95.77c-50.76-72.17-80.56-160.13-80.56-255.06,0-73.28,17.76-142.41,49.21-203.32l148.2,76.34c-19.64,38.04-30.73,81.22-30.73,126.98,0,59.28,18.61,114.22,50.31,159.29Z"/>
      <path class="cls-4" d="M437.35,328.21c-50.11,26.48-91.13,67.88-117.14,118.28l-148.2-76.34c41.64-80.7,107.33-146.99,187.57-189.4l77.77,147.46Z"/>
      <path class="cls-1" d="M929.01,316.94c-80.4-113.39-212.71-187.38-362.3-187.38-74.81,0-145.29,18.51-207.13,51.19l77.77,147.46c38.62-20.41,82.64-31.97,129.36-31.97,93.83,0,176.76,46.61,226.92,117.94l135.38-97.24Z"/>
      <path class="cls-7" d="M1065.25,827.57c-92.05,177.82-277.73,299.35-491.79,299.35-305.67,0-553.46-247.79-553.46-553.46S267.79,20,573.46,20c184.82,0,348.49,90.6,449,229.81"/>
      <line class="cls-3" x1="930.73" y1="316.94" x2="795.35" y2="414.18"/>
    </g>
  </g>
</svg>