<?xml version="1.0" encoding="UTF-8"?>
<svg id="Calque_2" data-name="Calque 2" xmlns="http://www.w3.org/2000/svg" viewBox="0 0 1087.15 1480.52">
  <defs>
    <style>
      .cls-1 {
        fill: #483c46;
      }

      .cls-1, .cls-2, .cls-3, .cls-4, .cls-5, .cls-6, .cls-7 {
        stroke-width: 0px;
      }

      .cls-2 {
        fill: #f2c14e;
      }

      .cls-3, .cls-8 {
        fill: none;
      }

      .cls-4 {
        fill: #4d9078;
      }

      .cls-8 {
        stroke: #e8eef0;
        stroke-miterlimit: 10;
        stroke-width: 40px;
      }

      .cls-5 {
        fill: #5fad56;
      }

      .cls-6 {
        fill: #f78154;
      }

      .cls-7 {
        fill: #e8eef0;
      }
    </style>
  </defs>
  <g id="Calque_1-2" data-name="Calque 1">
    <g>
      <g>
        <path class="cls-7" d="M204.81,1407.86c-10.72,41-41.28,71.52-96.12,71.52-72.25,0-108.69-54.82-108.69-123.1s36.48-124.98,109.9-124.98c56.98,0,87.88,32.49,95.01,72.87h-32.03c-8.65-26.31-26.06-46.16-64.27-46.16-53.29,0-75.07,48.45-75.07,97.31s20.7,97.36,76.46,97.36c37.25,0,53.58-21.35,62.65-44.82h32.15Z"/>
        <path class="cls-7" d="M375.63,1437.96c0,16.02,1.39,33.33,2.43,38.4h-29.09c-1.39-3.92-2.43-12.3-2.88-23.05-6.15,11.74-20.2,27.21-54.36,27.21-41.51,0-59.24-27.03-59.24-53.81,0-39.3,30.87-57.28,83.2-57.28h30.04v-15c0-15.52-4.96-34.48-37.91-34.48-29.41,0-34.38,14.59-37.58,28.34h-29.41c2.33-24.26,17.33-52.3,67.96-52.18,43.03.12,66.85,17.65,66.85,57.69v84.15ZM345.95,1390.52h-28.5c-35.1,0-53.89,9.7-53.89,34.52,0,18.31,12.55,31.64,34.28,31.64,42.4,0,48.11-28.56,48.11-60.53v-5.63Z"/>
        <path class="cls-7" d="M428.16,1348.12c0-24.62-.22-38.47-.35-47.84h29.8c.47,4.94.94,18.76.94,35.94,9.21-23.83,30.2-39.21,59.31-40.11v30.31c-36.11,1.08-59.31,19.93-59.31,64.45v85.48h-30.4v-128.24Z"/>
        <path class="cls-7" d="M550.03,1221.43h30.4v103.96c7.96-15.03,24.12-29.28,56.18-29.28,44.17,0,72.04,36.39,72.04,88.63s-26.84,95.78-76.68,95.78c-28.18,0-42.88-10.33-51.79-27.42,0,9.02-.59,18.51-1.19,23.25h-29.31c.35-19.67.35-39.46.35-59.13v-195.79ZM677.34,1385.34c0-37.99-17.35-63.43-47.88-63.43-37.38,0-50.57,25.09-50.57,67.01,0,36.67,11.7,65.95,49.1,65.95,31.14,0,49.34-26.58,49.34-69.52Z"/>
        <path class="cls-7" d="M901.71,1387.97c0,50.72-29.07,92.55-82.9,92.55-50.44,0-80.96-39.03-80.96-91.96s29.89-92.45,82.94-92.45c48.89,0,80.92,36.6,80.92,91.86ZM769.16,1388.32c0,38.62,19.27,66.79,50.91,66.79s50.32-26.72,50.32-66.66-18-66.91-51.01-66.91-50.22,26.59-50.22,66.78Z"/>
        <path class="cls-7" d="M941.47,1344.65c0-15.28,0-30.72-.35-44.37h29.56c.82,5.19,1.29,23.7,1.19,28.93,7.02-15.13,21.38-33.1,55.43-33.1s58.83,20.19,58.83,67v113.24h-30.4v-109.36c0-26.6-10.39-44.53-37.28-44.53-33.21,0-46.58,25.28-46.58,60.67v93.22h-30.4v-131.71Z"/>
      </g>
      <g>
        <path class="cls-6" d="M965.55,776.79c-41.65,80.7-107.33,146.99-187.57,189.39l-77.77-147.45c50.11-26.48,91.13-67.88,117.14-118.28l148.2,76.34Z"/>
        <path class="cls-2" d="M777.98,966.18c-61.84,32.68-132.32,51.19-207.13,51.19-150.23,0-283.04-74.63-363.35-188.84l136.43-95.77c50.16,71.33,133.09,117.94,226.92,117.94,46.72,0,90.74-11.56,129.36-31.97l77.77,147.45Z"/>
        <path class="cls-5" d="M343.93,732.76l-136.43,95.77c-50.76-72.17-80.56-160.13-80.56-255.06,0-73.28,17.76-142.41,49.21-203.32l148.2,76.34c-19.64,38.04-30.73,81.22-30.73,126.98,0,59.28,18.61,114.22,50.31,159.29Z"/>
        <path class="cls-4" d="M441.49,328.21c-50.11,26.48-91.13,67.88-117.14,118.28l-148.2-76.34c41.64-80.7,107.33-146.99,187.57-189.4l77.77,147.46Z"/>
        <path class="cls-1" d="M933.15,316.94c-80.4-113.39-212.71-187.38-362.3-187.38-74.81,0-145.29,18.51-207.13,51.19l77.77,147.46c38.62-20.41,82.64-31.97,129.36-31.97,93.83,0,176.76,46.61,226.92,117.94l135.38-97.24Z"/>
        <path class="cls-8" d="M1069.39,827.57c-92.05,177.82-277.73,299.35-491.79,299.35-305.67,0-553.46-247.79-553.46-553.46S271.93,20,577.6,20c184.82,0,348.49,90.6,449,229.81"/>
        <line class="cls-3" x1="934.86" y1="316.94" x2="799.48" y2="414.18"/>
      </g>
    </g>
  </g>
</svg>